<svg xmlns="http://www.w3.org/2000/svg" version="1.1" xmlns:xlink="http://www.w3.org/1999/xlink" width="512" height="512" x="0" y="0" viewBox="0 0 501.551 501.551" style="enable-background:new 0 0 512 512" xml:space="preserve"><g><path d="M439.902 436.767c-111.804 21.943-266.449 21.943-378.253 0-19.853-124.343-19.853-247.641 0-371.984 111.804-21.943 266.449-21.943 378.253 0 19.853 124.344 19.853 247.641 0 371.984" style="" fill="#ffd15c" data-original="#ffd15c"></path><path d="m451.396 486.922-11.494-50.155H61.649l-11.494 50.155 14.629 14.629 14.628-14.629 13.584 14.629 14.629-14.629 14.628 14.629 13.584-14.629 14.628 14.629 14.629-14.629 14.628 14.629 13.584-14.629 14.629 14.629 14.628-14.629 13.584 14.629 14.629-14.629 14.628 14.629 13.584-14.629 14.628 14.629 14.629-14.629 13.584 14.629 14.628-14.629 14.629 14.629 14.628-14.629 13.584 14.629 14.629-14.629 14.628 14.629 13.584-14.629 14.628 14.629zM436.767 0l-14.628 14.629L408.555 0l-14.628 14.629L379.298 0l-13.584 14.629L351.086 0l-14.629 14.629L321.829 0l-13.584 14.629L293.616 0l-14.628 14.629L265.404 0l-14.628 14.629L236.147 0l-13.584 14.629L207.935 0l-14.629 14.629L179.722 0l-14.628 14.629L150.465 0l-14.628 14.629L122.253 0l-14.628 14.629L92.996 0 79.412 14.629 64.784 0 50.155 14.629l11.494 50.155h378.253l11.494-50.155z" style="" fill="#f8b64c" data-original="#f8b64c"></path><ellipse cx="250.773" cy="250.758" rx="100.307" ry="152.551" style="" transform="scale(-1)rotate(61.997 417.365 -417.392)" fill="#ff7058" data-original="#ff7058"></ellipse><path d="M382.433 364.669c-4.18 0-7.314-3.135-7.314-7.314 0-25.078 20.898-45.975 45.976-45.975 4.18 0 7.314 3.135 7.314 7.314s-3.135 7.314-7.314 7.314c-16.718 0-30.302 13.584-30.302 30.302-1.046 4.18-4.181 8.359-8.36 8.359M374.073 143.151c-4.18 0-7.314-3.135-7.314-7.314 0-25.078 20.898-45.976 45.976-45.976 4.18 0 7.314 3.135 7.314 7.314s-3.135 7.314-7.314 7.314c-16.718 0-30.302 13.584-30.302 30.302-1.045 5.225-4.18 8.36-8.36 8.36M272.718 382.433c0-4.18 3.135-7.314 7.314-7.314 25.078 0 45.975 20.898 45.975 45.976 0 4.18-3.135 7.314-7.314 7.314s-7.314-3.135-7.314-7.314c0-16.718-13.584-30.302-30.302-30.302-5.224-.001-8.359-4.181-8.359-8.36M82.547 191.216c-4.18 0-7.314-3.135-7.314-7.314 0-25.078 20.898-45.976 45.976-45.976 4.18 0 7.314 3.135 7.314 7.314s-3.135 7.314-7.314 7.314c-16.718 0-30.302 13.584-30.302 30.302-1.046 4.181-4.18 8.36-8.36 8.36M159.869 97.176c0-4.18 3.135-7.314 7.314-7.314 25.078 0 45.976 20.898 45.976 45.976 0 4.18-3.135 7.314-7.314 7.314s-7.314-3.135-7.314-7.314c0-16.718-13.584-30.302-30.302-30.302-5.225-.001-8.36-4.181-8.36-8.36" style="" fill="#f8b64c" data-original="#f8b64c"></path><path d="m151.51 288.392 15.673 1.045c0 8.359-2.09 15.673-6.269 20.898s-9.404 8.359-17.763 10.449c-9.404 2.09-18.808 1.045-26.122-3.135-8.359-5.224-13.584-12.539-16.718-24.033s-3.135-21.943 2.09-30.302c4.18-8.359 11.494-13.584 21.943-16.718 8.359-2.09 16.718-2.09 24.033 2.09 4.18 2.09 7.314 6.269 11.494 11.494l-14.629 6.269c-2.09-3.135-4.18-6.269-7.314-7.314s-7.314-2.09-10.449-1.045c-5.224 1.045-9.404 4.18-11.494 9.404s-2.09 11.494 0 19.853c2.09 9.404 6.269 15.673 10.449 17.763 4.18 3.135 9.404 4.18 14.629 2.09q6.27-1.568 9.404-6.269c-.002-3.135 1.043-7.315 1.043-12.539M184.947 307.2l-18.808-72.098 14.629-4.18 7.314 28.212 28.212-7.314-7.314-28.212 14.629-4.18 19.853 72.098-14.629 4.18-8.359-31.347-28.212 7.314 8.359 31.347zM258.09 287.347l-19.853-72.098 14.629-4.18 19.853 72.098zM286.302 280.033l-19.853-72.098 22.988-6.269c8.359-2.09 14.629-3.135 17.763-3.135 4.18 0 8.359 1.045 12.539 4.18s6.269 7.314 8.359 12.539c1.045 4.18 1.045 8.359 1.045 11.494-1.045 3.135-2.09 6.269-4.18 8.359s-4.18 4.18-6.269 5.224c-3.135 2.09-8.359 3.135-14.629 5.224l-9.404 2.09 7.314 27.167zm-2.09-63.739 5.224 20.898 8.359-2.09c5.224-1.045 9.404-3.135 11.494-4.18s3.135-3.135 3.135-5.225q1.567-3.135 0-6.269c-1.045-3.135-2.09-4.18-4.18-6.269-2.09-1.045-4.18-2.09-6.269-2.09s-5.224 1.045-10.449 2.09zM342.727 239.282l13.584-5.224c2.09 4.18 5.225 7.314 8.359 9.404 3.135 1.045 7.314 2.09 11.494 0 4.18-1.045 8.359-3.135 9.404-6.269 2.09-3.135 2.09-5.224 2.09-8.359 0-2.09-1.045-3.135-3.135-4.18h-17.764q-12.539 0-18.808-3.135c-5.224-3.135-9.404-7.314-10.449-12.539-1.045-4.18-1.045-7.314 0-11.494s3.135-7.314 7.314-9.404c3.135-3.135 8.359-5.225 13.584-6.269q14.106-3.135 21.943 0c5.224 3.135 9.404 7.314 11.494 13.584l-14.629 4.18c-2.09-3.135-4.18-6.269-6.269-7.314s-6.269-1.045-9.404 0c-4.18 1.045-7.314 3.135-9.404 5.224-1.045 1.045-2.09 3.135-1.045 5.224 0 2.09 2.09 3.135 3.135 4.18 2.09 1.045 7.314 1.045 14.629 1.045s13.584 0 16.718 1.045c4.18 1.045 7.314 2.09 10.449 5.224 3.135 2.09 5.224 6.269 6.269 10.449a25.47 25.47 0 0 1 0 12.539c-1.045 4.18-4.18 7.314-7.314 10.449-4.18 3.135-8.359 5.225-14.629 7.314-9.404 2.09-16.718 2.09-22.988-1.045-6.269-1.046-11.494-6.27-14.628-14.629" style="" fill="#ffffff" data-original="#ffffff"></path></g></svg>